<svg width="130" height="13" viewBox="0 0 130 13" fill="none" xmlns="http://www.w3.org/2000/svg">
<path fill-rule="evenodd" clip-rule="evenodd" d="M50.9956 9.13273C50.9956 11.1816 49.4716 12.627 46.9633 12.627H40.6448C40.4385 12.627 40.2638 12.4523 40.2638 12.2458V0.619451C40.2638 0.412972 40.4385 0.23826 40.6448 0.23826H46.4235C49.0906 0.23826 50.44 1.68361 50.44 3.6531C50.44 4.78079 49.9637 5.57494 49.2017 6.09908C49.0906 6.17849 49.0906 6.32144 49.2176 6.38497C50.313 6.89323 50.9956 7.79856 50.9956 9.13273ZM46.614 9.75216C47.4713 9.75216 47.7888 9.29156 47.7888 8.64036C47.7888 8.00504 47.4713 7.5762 46.614 7.5762H43.7564C43.5818 7.5762 43.4389 7.71914 43.4389 7.89386V9.43451C43.4389 9.60922 43.5818 9.75216 43.7564 9.75216H46.614ZM46.0584 5.09845C46.9156 5.09845 47.2332 4.70138 47.2332 4.11371C47.2332 3.52604 46.8998 3.12896 46.233 3.12896H43.7564C43.5818 3.12896 43.4389 3.27191 43.4389 3.44662V4.78079C43.4389 4.9555 43.5818 5.09845 43.7564 5.09845H46.0584Z" fill="url(#paint0_linear_288_763)"/>
<path d="M92.411 9.18038C92.411 11.5946 90.3154 12.8652 87.4896 12.8652C84.6796 12.8652 82.473 11.6264 82.2507 9.35509C82.2348 9.13273 82.4412 8.91037 82.6635 8.91037H84.8066C85.1718 8.91037 85.2512 8.98978 85.4417 9.32332C85.6639 9.73628 86.3148 10.1175 87.4261 10.1175C88.6168 10.1175 88.9978 9.7204 88.9978 9.35509C88.9978 8.83095 88.3786 8.51329 86.8863 8.00504C84.9178 7.35383 82.3301 6.40086 82.3301 3.8437C82.3301 1.47713 84.3463 1.52588e-05 87.1721 1.52588e-05C90.0614 1.52588e-05 92.0776 1.5089 92.2364 3.73252C92.2522 3.95488 92.0459 4.17724 91.8236 4.17724H89.6169C89.3153 4.17724 89.1724 4.03429 89.0771 3.7484C88.8866 3.22426 88.2834 2.74777 87.2356 2.74777C86.1561 2.74777 85.7274 3.17661 85.7274 3.58957C85.7274 4.08194 86.2989 4.33607 87.7754 4.84432L87.7975 4.8521C89.5149 5.45661 92.411 6.47602 92.411 9.18038Z" fill="url(#paint1_linear_288_763)"/>
<path d="M97.4787 3.31956C97.6534 3.31956 97.7963 3.4625 97.7963 3.63722V12.2458C97.7963 12.4523 97.9709 12.627 98.1773 12.627H100.59C100.797 12.627 100.971 12.4523 100.971 12.2458V3.63722C100.971 3.4625 101.114 3.31956 101.289 3.31956H104.448C104.654 3.31956 104.829 3.14485 104.829 2.93837V0.619451C104.829 0.412972 104.654 0.23826 104.448 0.23826H94.3195C94.1131 0.23826 93.9385 0.412972 93.9385 0.619451V2.93837C93.9385 3.14485 94.1131 3.31956 94.3195 3.31956H97.4787Z" fill="url(#paint2_linear_288_763)"/>
<path d="M116.354 12.2458C116.354 12.4523 116.179 12.627 115.973 12.627H107.226C107.019 12.627 106.845 12.4523 106.845 12.2458V0.619451C106.845 0.412972 107.019 0.23826 107.226 0.23826H115.973C116.179 0.23826 116.354 0.412972 116.354 0.619451V2.93837C116.354 3.14485 116.179 3.31956 115.973 3.31956H110.337C110.163 3.31956 110.02 3.4625 110.02 3.63722V4.78079C110.02 4.9555 110.163 5.09845 110.337 5.09845H114.846C115.052 5.09845 115.227 5.27316 115.227 5.47964V7.59208C115.227 7.79856 115.052 7.97327 114.846 7.97327H110.337C110.163 7.97327 110.02 8.11622 110.02 8.29093V9.24391C110.02 9.41862 110.163 9.56157 110.337 9.56157H115.973C116.179 9.56157 116.354 9.73628 116.354 9.94276V12.2458Z" fill="url(#paint3_linear_288_763)"/>
<path fill-rule="evenodd" clip-rule="evenodd" d="M118.772 12.2458C118.772 12.4523 118.946 12.627 119.153 12.627H121.55C121.756 12.627 121.931 12.4523 121.931 12.2458V9.6251C121.931 9.45039 122.074 9.30744 122.248 9.30744H123.233C123.423 9.30744 123.63 9.40274 123.741 9.56157L125.678 12.3093C125.82 12.4999 126.043 12.627 126.281 12.627H129.313C129.472 12.627 129.567 12.4523 129.472 12.3093L127.202 9.14861C127.106 9.00566 127.138 8.81507 127.297 8.73565C128.773 7.92562 129.456 6.40086 129.456 4.76491C129.456 2.30305 127.995 0.23826 124.82 0.23826H119.153C118.946 0.23826 118.772 0.412972 118.772 0.619451V12.2458ZM126.392 4.79667C126.392 5.65436 125.916 6.43262 124.646 6.43262H122.248C122.074 6.43262 121.931 6.28967 121.931 6.11496V3.44662C121.931 3.27191 122.074 3.12896 122.248 3.12896H124.646C125.916 3.12896 126.392 3.8437 126.392 4.79667Z" fill="url(#paint4_linear_288_763)"/>
<path fill-rule="evenodd" clip-rule="evenodd" d="M52.7116 6.44318C52.7116 2.99365 55.5067 0.197249 58.9546 0.197249H74.562C78.0099 0.197249 80.805 2.99365 80.805 6.44318C80.805 9.89272 78.0099 12.6891 74.562 12.6891H58.9546C55.5067 12.6891 52.7116 9.89272 52.7116 6.44318ZM58.9546 3.32022H74.562C76.286 3.32022 77.6835 4.71842 77.6835 6.44318C77.6835 8.16795 76.286 9.56615 74.562 9.56615H58.9546C57.2306 9.56615 55.8331 8.16795 55.8331 6.44318C55.8331 4.71842 57.2306 3.32022 58.9546 3.32022Z" fill="url(#paint5_linear_288_763)"/>
<path fill-rule="evenodd" clip-rule="evenodd" d="M18.242 12.6267C18.4484 12.6267 18.623 12.452 18.623 12.2455V10.133C18.623 9.95833 18.7659 9.81538 18.9405 9.81538H20.9091C24.1953 9.81538 25.767 7.60765 25.767 4.98695C25.767 2.49333 24.1953 0.237943 20.9091 0.237943H15.8289C15.6225 0.237943 15.4479 0.412655 15.4479 0.619134V12.2455C15.4479 12.452 15.6225 12.6267 15.8289 12.6267H18.242ZM22.5601 5.00284C22.5601 6.09876 22.068 6.92468 20.7344 6.92468H18.9405C18.7659 6.92468 18.623 6.78173 18.623 6.60702V3.44631C18.623 3.27159 18.7659 3.12864 18.9405 3.12864H20.7344C22.068 3.12864 22.5601 4.01809 22.5601 5.00284Z" fill="url(#paint6_linear_288_763)"/>
<path fill-rule="evenodd" clip-rule="evenodd" d="M30.6497 12.6267C30.856 12.6267 31.0307 12.452 31.0307 12.2455V10.133C31.0307 9.95833 31.1736 9.81538 31.3482 9.81538H33.3167C36.603 9.81538 38.1746 7.60765 38.1746 4.98695C38.1746 2.49333 36.603 0.237943 33.3167 0.237943H28.2366C28.0302 0.237943 27.8556 0.412655 27.8556 0.619134V12.2455C27.8556 12.452 28.0302 12.6267 28.2366 12.6267H30.6497ZM34.9678 5.00284C34.9678 6.09876 34.4757 6.92468 33.1421 6.92468H31.3482C31.1736 6.92468 31.0307 6.78173 31.0307 6.60702V3.44631C31.0307 3.27159 31.1736 3.12864 31.3482 3.12864H33.1421C34.4757 3.12864 34.9678 4.01809 34.9678 5.00284Z" fill="url(#paint7_linear_288_763)"/>
<path d="M6.10501 0.776692C6.47667 0.102537 7.44356 0.0980418 7.82146 0.768713L13.992 11.7198C14.2854 12.2405 13.7304 12.8675 13.1699 12.6603C11.5067 12.0453 8.96701 11.25 6.95609 11.25C4.42806 11.25 3.34256 12.0857 2.97809 12.4683C3.48039 11.8723 5.1516 10.0395 6.95609 9.71624C7.51796 9.61559 8.24096 9.63439 8.73604 9.66632C8.96917 9.68135 9.13257 9.42441 9.01239 9.22399L7.32546 6.41057C7.1672 6.14663 6.78623 6.14273 6.6226 6.40337L3.32576 11.655C2.93491 12.2776 2.25163 12.6555 1.51678 12.6555H0.641742C0.153968 12.6555 -0.154995 12.132 0.0805798 11.7046L6.10501 0.776692Z" fill="url(#paint8_linear_288_763)"/>
<path d="M2.97809 12.4683C2.87885 12.586 2.82524 12.6555 2.82524 12.6555C2.82524 12.6555 2.8699 12.5818 2.97809 12.4683Z" fill="url(#paint9_linear_288_763)"/>
<defs>
<linearGradient id="paint0_linear_288_763" x1="1.5973" y1="6.44341" x2="129.188" y2="6.44342" gradientUnits="userSpaceOnUse">
<stop offset="0.427083" stop-color="white"/>
<stop offset="0.609375" stop-color="#FE2B51"/>
</linearGradient>
<linearGradient id="paint1_linear_288_763" x1="1.5973" y1="6.44341" x2="129.188" y2="6.44342" gradientUnits="userSpaceOnUse">
<stop offset="0.427083" stop-color="white"/>
<stop offset="0.609375" stop-color="#FE2B51"/>
</linearGradient>
<linearGradient id="paint2_linear_288_763" x1="1.5973" y1="6.44341" x2="129.188" y2="6.44342" gradientUnits="userSpaceOnUse">
<stop offset="0.427083" stop-color="white"/>
<stop offset="0.609375" stop-color="#FE2B51"/>
</linearGradient>
<linearGradient id="paint3_linear_288_763" x1="1.5973" y1="6.44341" x2="129.188" y2="6.44342" gradientUnits="userSpaceOnUse">
<stop offset="0.427083" stop-color="white"/>
<stop offset="0.609375" stop-color="#FE2B51"/>
</linearGradient>
<linearGradient id="paint4_linear_288_763" x1="1.5973" y1="6.44341" x2="129.188" y2="6.44342" gradientUnits="userSpaceOnUse">
<stop offset="0.427083" stop-color="white"/>
<stop offset="0.609375" stop-color="#FE2B51"/>
</linearGradient>
<linearGradient id="paint5_linear_288_763" x1="1.5973" y1="6.44341" x2="129.188" y2="6.44342" gradientUnits="userSpaceOnUse">
<stop offset="0.427083" stop-color="white"/>
<stop offset="0.609375" stop-color="#FE2B51"/>
</linearGradient>
<linearGradient id="paint6_linear_288_763" x1="1.5973" y1="6.44341" x2="129.188" y2="6.44342" gradientUnits="userSpaceOnUse">
<stop offset="0.427083" stop-color="white"/>
<stop offset="0.609375" stop-color="#FE2B51"/>
</linearGradient>
<linearGradient id="paint7_linear_288_763" x1="1.5973" y1="6.44341" x2="129.188" y2="6.44342" gradientUnits="userSpaceOnUse">
<stop offset="0.427083" stop-color="white"/>
<stop offset="0.609375" stop-color="#FE2B51"/>
</linearGradient>
<linearGradient id="paint8_linear_288_763" x1="1.5973" y1="6.44341" x2="129.188" y2="6.44342" gradientUnits="userSpaceOnUse">
<stop offset="0.427083" stop-color="white"/>
<stop offset="0.609375" stop-color="#FE2B51"/>
</linearGradient>
<linearGradient id="paint9_linear_288_763" x1="1.5973" y1="6.44341" x2="129.188" y2="6.44342" gradientUnits="userSpaceOnUse">
<stop offset="0.427083" stop-color="white"/>
<stop offset="0.609375" stop-color="#FE2B51"/>
</linearGradient>
</defs>
</svg>
